<?xml version="1.0" encoding="UTF-8"?>
<svg width="100px" height="100px" viewBox="0 0 100 100" version="1.1" xmlns="http://www.w3.org/2000/svg" xmlns:xlink="http://www.w3.org/1999/xlink">
    <!-- Generator: Sketch 47.1 (45422) - http://www.bohemiancoding.com/sketch -->
    <title>anchors</title>
    <desc>Created with Sketch.</desc>
    <defs></defs>
    <g id="Icons" stroke="none" stroke-width="1" fill="none" fill-rule="evenodd">
        <g id="anchors">
            <circle id="Oval" fill="#8F98A3" cx="50" cy="50" r="50"></circle>
            <path d="M72.3715264,57.3995221 L72.3715264,65.9919075 C72.3715264,66.3499254 72.2087935,66.5940248 71.8833227,66.7242131 C71.7531344,66.7567602 71.6554947,66.7730335 71.5904005,66.7730335 C71.395118,66.7730335 71.2079752,66.6998036 71.0289662,66.5533418 L68.758819,64.2831945 C66.8222679,66.6103105 64.2307457,68.4532611 60.9841748,69.8121016 C57.7376038,71.1709421 54.2429139,71.8503521 50.5,71.8503521 C46.7570861,71.8503521 43.2623962,71.1709421 40.0158252,69.8121016 C36.7692543,68.4532611 34.1777321,66.6103105 32.241181,64.2831945 L29.9710338,66.5533418 C29.8245719,66.6998036 29.637429,66.7730335 29.4095995,66.7730335 C29.3445053,66.7730335 29.2468656,66.7567602 29.1166773,66.7242131 C28.7912065,66.5940248 28.6284736,66.3499254 28.6284736,65.9919075 L28.6284736,57.3995221 C28.6284736,57.1716926 28.7017034,56.9845497 28.8481652,56.8380879 C28.9946271,56.691626 29.18177,56.6183962 29.4095995,56.6183962 L38.0019849,56.6183962 C38.3600027,56.6183962 38.6041022,56.7811291 38.7342905,57.1065999 C38.8644788,57.4157971 38.8075222,57.7005798 38.5634192,57.9609564 L36.1224006,60.401975 C37.2127277,61.882867 38.7546223,63.1318423 40.7481308,64.1489385 C42.7416393,65.1660347 44.950739,65.837308 47.3754962,66.1627788 L47.3754962,50.3693886 L42.6887406,50.3693886 C42.2656286,50.3693886 41.8994794,50.2147923 41.5902822,49.9055951 C41.281085,49.5963979 41.1264887,49.2302487 41.1264887,48.8071367 L41.1264887,45.682633 C41.1264887,45.259521 41.281085,44.8933718 41.5902822,44.5841746 C41.8994794,44.2749774 42.2656286,44.1203811 42.6887406,44.1203811 L47.3754962,44.1203811 L47.3754962,40.1415208 C46.431631,39.5882205 45.6749228,38.8355806 45.1053489,37.8835786 C44.5357751,36.9315766 44.2509924,35.8860174 44.2509924,34.7468697 C44.2509924,33.0218747 44.861241,31.5491415 46.0817564,30.3286261 C47.3022718,29.1081107 48.7750049,28.4978622 50.5,28.4978622 C52.2249951,28.4978622 53.6977282,29.1081107 54.9182436,30.3286261 C56.138759,31.5491415 56.7490076,33.0218747 56.7490076,34.7468697 C56.7490076,35.8860174 56.4642249,36.9315766 55.8946511,37.8835786 C55.3250772,38.8355806 54.568369,39.5882205 53.6245038,40.1415208 L53.6245038,44.1203811 L58.3112594,44.1203811 C58.7343714,44.1203811 59.1005206,44.2749774 59.4097178,44.5841746 C59.718915,44.8933718 59.8735113,45.259521 59.8735113,45.682633 L59.8735113,48.8071367 C59.8735113,49.2302487 59.718915,49.5963979 59.4097178,49.9055951 C59.1005206,50.2147923 58.7343714,50.3693886 58.3112594,50.3693886 L53.6245038,50.3693886 L53.6245038,66.1627788 C56.049261,65.837308 58.2583607,65.1660347 60.2518692,64.1489385 C62.2453777,63.1318423 63.7872723,61.882867 64.8775994,60.401975 L62.4365808,57.9609564 C62.1924778,57.7005798 62.1355212,57.4157971 62.2657095,57.1065999 C62.3958978,56.7811291 62.6399973,56.6183962 62.9980151,56.6183962 L71.5904005,56.6183962 C71.81823,56.6183962 72.0053729,56.691626 72.1518348,56.8380879 C72.2982966,56.9845497 72.3715264,57.1716926 72.3715264,57.3995221 Z M51.5984584,35.8453281 C51.9076556,35.5361309 52.0622519,35.1699817 52.0622519,34.7468697 C52.0622519,34.3237577 51.9076556,33.9576086 51.5984584,33.6484114 C51.2892611,33.3392141 50.923112,33.1846178 50.5,33.1846178 C50.076888,33.1846178 49.7107389,33.3392141 49.4015416,33.6484114 C49.0923444,33.9576086 48.9377481,34.3237577 48.9377481,34.7468697 C48.9377481,35.1699817 49.0923444,35.5361309 49.4015416,35.8453281 C49.7107389,36.1545253 50.076888,36.3091216 50.5,36.3091216 C50.923112,36.3091216 51.2892611,36.1545253 51.5984584,35.8453281 Z" id="icon" fill="#FFFFFF"></path>
        </g>
    </g>
</svg>