<?xml version="1.0" encoding="utf-8"?>
<!DOCTYPE svg PUBLIC "-//W3C//DTD SVG 1.1//EN" "http://www.w3.org/Graphics/SVG/1.1/DTD/svg11.dtd">
<svg xmlns="http://www.w3.org/2000/svg" width="100" height="100"><path fill="#010101" d="M87.117 44.272L70.173 61.21c-9.353 9.358-24.524 9.358-33.877 0-1.474-1.468-2.626-3.124-3.638-4.83l7.873-7.874c.376-.377.838-.594 1.28-.848.544 1.86 1.494 3.62 2.957 5.083 4.67 4.676 12.27 4.67 16.94 0l16.937-16.936c4.673-4.673 4.673-12.27 0-16.94-4.668-4.67-12.266-4.67-16.938 0l-6.024 6.03c-4.886-1.905-10.153-2.417-15.28-1.665l12.835-12.836c9.358-9.355 24.524-9.355 33.883 0 9.352 9.354 9.352 24.523 0 33.88zm-44.794 27.85l-6.027 6.032c-4.67 4.668-12.27 4.668-16.94 0-4.67-4.674-4.67-12.27 0-16.943l16.94-16.937c4.673-4.673 12.268-4.673 16.938 0 1.46 1.46 2.41 3.22 2.96 5.076.444-.258.9-.468 1.275-.84l7.87-7.87c-1.006-1.716-2.164-3.365-3.638-4.836-9.353-9.355-24.525-9.355-33.88 0L10.885 52.74c-9.355 9.36-9.355 24.525 0 33.883 9.355 9.354 24.525 9.354 33.88 0l12.838-12.838c-5.13.754-10.396.24-15.28-1.662z"/></svg>