<?xml version="1.0" encoding="utf-8"?>
<!-- Generator: Adobe Illustrator 16.0.4, SVG Export Plug-In . SVG Version: 6.00 Build 0)  -->
<!DOCTYPE svg PUBLIC "-//W3C//DTD SVG 1.1//EN" "http://www.w3.org/Graphics/SVG/1.1/DTD/svg11.dtd">
<svg version="1.1" id="Capa_1" xmlns="http://www.w3.org/2000/svg" xmlns:xlink="http://www.w3.org/1999/xlink" x="0px" y="0px"
	 width="99.012px" height="99.012px" viewBox="0 0 99.012 99.012" enable-background="new 0 0 99.012 99.012" xml:space="preserve">
<path fill="#010101" d="M87.117,44.272L70.173,61.209c-9.353,9.359-24.524,9.359-33.877,0c-1.474-1.467-2.626-3.123-3.638-4.83
	l7.873-7.873c0.374-0.377,0.836-0.594,1.278-0.848c0.544,1.86,1.494,3.621,2.957,5.083c4.67,4.674,12.271,4.668,16.939,0
	l16.938-16.938c4.673-4.673,4.673-12.271,0-16.941c-4.668-4.67-12.266-4.67-16.938,0l-6.024,6.03
	c-4.887-1.904-10.154-2.416-15.281-1.664l12.835-12.835c9.358-9.355,24.524-9.355,33.883,0C96.47,19.747,96.47,34.916,87.117,44.272
	z M42.323,72.123l-6.027,6.031c-4.67,4.668-12.271,4.668-16.941,0c-4.67-4.674-4.67-12.271,0-16.943l16.941-16.939
	c4.673-4.673,12.268-4.673,16.938,0c1.459,1.459,2.41,3.22,2.96,5.076c0.444-0.257,0.9-0.467,1.275-0.841l7.872-7.87
	c-1.006-1.714-2.164-3.363-3.638-4.834c-9.353-9.355-24.525-9.355-33.88,0L10.885,52.74c-9.355,9.359-9.355,24.525,0,33.883
	c9.355,9.354,24.525,9.354,33.88,0l12.838-12.838C52.474,74.539,47.207,74.026,42.323,72.123z"/>
</svg>
